<?xml version="1.0" encoding="UTF-8" standalone="no" ?>
<!DOCTYPE svg PUBLIC "-//W3C//DTD SVG 1.1//EN" "http://www.w3.org/Graphics/SVG/1.1/DTD/svg11.dtd">
<svg xmlns="http://www.w3.org/2000/svg" xmlns:xlink="http://www.w3.org/1999/xlink" version="1.1" width="1080" height="1080" viewBox="0 0 1080 1080" xml:space="preserve">
<desc>Created with Fabric.js 5.2.4</desc>
<defs>
</defs>
<g transform="matrix(1 0 0 1 540 540)" id="98691673-196b-4bb9-9e05-5bb18b39af16"  >
<rect style="stroke: none; stroke-width: 1; stroke-dasharray: none; stroke-linecap: butt; stroke-dashoffset: 0; stroke-linejoin: miter; stroke-miterlimit: 4; fill: rgb(255,255,255); fill-rule: nonzero; opacity: 1; visibility: hidden;" vector-effect="non-scaling-stroke"  x="-540" y="-540" rx="0" ry="0" width="1080" height="1080" />
</g>
<g transform="matrix(1 0 0 1 540 540)" id="b0f09cad-a3ed-4465-97bb-83d8a9933e6b"  >
</g>
<g transform="matrix(1 0 0 1 540 540)"  >
<g style="" vector-effect="non-scaling-stroke"   >
		<g transform="matrix(1.01 0 0 1.01 0 -242.88)"  >
<path style="stroke: none; stroke-width: 1; stroke-dasharray: none; stroke-linecap: butt; stroke-dashoffset: 0; stroke-linejoin: miter; stroke-miterlimit: 4; fill: rgb(98,102,124); fill-rule: nonzero; opacity: 1;" vector-effect="non-scaling-stroke"  transform=" translate(-253.05, -12.97)" d="M 297.933 5.977 L 297.933 25.941 L 208.166 25.941 L 208.166 5.977 C 208.166 2.676 210.84199999999998 0 214.143 0 L 291.955 0 C 295.256 0 297.933 2.676 297.933 5.977 z" stroke-linecap="round" />
</g>
		<g transform="matrix(1.01 0 0 1.01 0 17.14)"  >
<path style="stroke: none; stroke-width: 1; stroke-dasharray: none; stroke-linecap: butt; stroke-dashoffset: 0; stroke-linejoin: miter; stroke-miterlimit: 4; fill: rgb(246,184,99); fill-rule: nonzero; opacity: 1;" vector-effect="non-scaling-stroke"  transform=" translate(-253.05, -269.99)" d="M 86.91 33.891 L 419.188 33.891 C 429.092 33.891 437.12 41.919 437.12 51.82299999999999 L 437.12 488.166 C 437.12 498.07 429.092 506.098 419.188 506.098 L 86.90999999999997 506.098 C 77.00599999999997 506.098 68.97799999999997 498.07 68.97799999999997 488.166 L 68.97799999999997 51.82299999999998 C 68.97799999999997 41.91999999999998 77.00599999999997 33.89099999999998 86.90999999999997 33.89099999999998 z" stroke-linecap="round" />
</g>
		<g transform="matrix(1.01 0 0 1.01 0 17.14)"  >
<path style="stroke: none; stroke-width: 1; stroke-dasharray: none; stroke-linecap: butt; stroke-dashoffset: 0; stroke-linejoin: miter; stroke-miterlimit: 4; fill: rgb(238,239,238); fill-rule: nonzero; opacity: 1;" vector-effect="non-scaling-stroke"  transform=" translate(-253.05, -270)" d="M 98.865 63.778 L 407.23400000000004 63.778 L 407.23400000000004 476.21200000000005 L 98.86500000000001 476.21200000000005 z" stroke-linecap="round" />
</g>
		<g transform="matrix(1.01 0 0 1.01 0.01 -175.45)"  >
<path style="stroke: none; stroke-width: 1; stroke-dasharray: none; stroke-linecap: butt; stroke-dashoffset: 0; stroke-linejoin: miter; stroke-miterlimit: 4; fill: rgb(87,91,109); fill-rule: nonzero; opacity: 1;" vector-effect="non-scaling-stroke"  transform=" translate(-253.06, -79.62)" d="M 293.88 101.435 L 212.218 101.435 C 206.177 101.452 200.827 97.538 199.01399999999998 91.776 L 192.07999999999998 69.875 C 190.72299999999998 65.613 191.48199999999997 67.078 194.106 63.473 C 196.703 59.894999999999996 200.862 57.784 205.284 57.801 L 300.831 57.801 C 305.252 57.784 309.41200000000003 59.895 312.009 63.473 C 314.64500000000004 67.059 315.386 65.607 314.035 69.869 L 307.083 91.776 C 305.271 97.538 299.92100000000005 101.452 293.88000000000005 101.435 z M 205.266 63.778000000000006 C 204.21599999999998 63.787000000000006 203.373 64.646 203.382 65.69600000000001 C 203.38400000000001 65.88700000000001 203.41400000000002 66.07700000000001 203.473 66.25900000000001 L 210.425 88.16000000000001 C 210.67000000000002 88.94600000000001 211.395 89.483 212.21800000000002 89.48700000000001 L 293.88 89.48700000000001 C 294.703 89.483 295.428 88.94600000000001 295.673 88.16000000000001 L 302.66 66.25300000000001 C 302.97700000000003 65.25200000000001 302.423 64.18400000000001 301.422 63.86700000000001 C 301.242 63.81000000000001 301.055 63.78000000000001 300.867 63.77800000000001 z" stroke-linecap="round" />
</g>
		<g transform="matrix(1.01 0 0 1.01 0 -209.62)"  >
<path style="stroke: none; stroke-width: 1; stroke-dasharray: none; stroke-linecap: butt; stroke-dashoffset: 0; stroke-linejoin: miter; stroke-miterlimit: 4; fill: rgb(130,138,158); fill-rule: nonzero; opacity: 1;" vector-effect="non-scaling-stroke"  transform=" translate(-253.05, -45.85)" d="M 176.462 21.937 L 329.63599999999997 21.937 C 332.18399999999997 21.937 334.251 24.003 334.251 26.551000000000002 L 334.251 65.14 C 334.251 67.68900000000001 332.185 69.754 329.63599999999997 69.754 L 176.46199999999996 69.754 C 173.91299999999995 69.754 171.84799999999996 67.688 171.84799999999996 65.14 L 171.84799999999996 26.551000000000002 C 171.84699999999995 24.003 173.91299999999995 21.937 176.46199999999996 21.937 z" stroke-linecap="round" />
</g>
		<g transform="matrix(1.01 0 0 1.01 -96.84 36.74)"  >
<path style="stroke: none; stroke-width: 1; stroke-dasharray: none; stroke-linecap: butt; stroke-dashoffset: 0; stroke-linejoin: miter; stroke-miterlimit: 4; fill: rgb(219,216,221); fill-rule: nonzero; opacity: 1;" vector-effect="non-scaling-stroke"  transform=" translate(-157.32, -289.36)" d="M 131.262 283.324 L 183.38400000000001 283.324 L 183.38400000000001 295.398 L 131.262 295.398 z" stroke-linecap="round" />
</g>
		<g transform="matrix(1.01 0 0 1.01 42.98 36.74)"  >
<path style="stroke: none; stroke-width: 1; stroke-dasharray: none; stroke-linecap: butt; stroke-dashoffset: 0; stroke-linejoin: miter; stroke-miterlimit: 4; fill: rgb(219,216,221); fill-rule: nonzero; opacity: 1;" vector-effect="non-scaling-stroke"  transform=" translate(-295.53, -289.36)" d="M 216.229 283.324 L 374.837 283.324 L 374.837 295.398 L 216.22899999999998 295.398 z" stroke-linecap="round" />
</g>
		<g transform="matrix(1.01 0 0 1.01 -96.84 85.46)"  >
<path style="stroke: none; stroke-width: 1; stroke-dasharray: none; stroke-linecap: butt; stroke-dashoffset: 0; stroke-linejoin: miter; stroke-miterlimit: 4; fill: rgb(219,216,221); fill-rule: nonzero; opacity: 1;" vector-effect="non-scaling-stroke"  transform=" translate(-157.32, -337.52)" d="M 131.262 331.483 L 183.38400000000001 331.483 L 183.38400000000001 343.557 L 131.262 343.557 z" stroke-linecap="round" />
</g>
		<g transform="matrix(1.01 0 0 1.01 42.98 85.46)"  >
<path style="stroke: none; stroke-width: 1; stroke-dasharray: none; stroke-linecap: butt; stroke-dashoffset: 0; stroke-linejoin: miter; stroke-miterlimit: 4; fill: rgb(219,216,221); fill-rule: nonzero; opacity: 1;" vector-effect="non-scaling-stroke"  transform=" translate(-295.53, -337.52)" d="M 216.229 331.483 L 374.837 331.483 L 374.837 343.557 L 216.22899999999998 343.557 z" stroke-linecap="round" />
</g>
		<g transform="matrix(1.01 0 0 1.01 -96.84 134.18)"  >
<path style="stroke: none; stroke-width: 1; stroke-dasharray: none; stroke-linecap: butt; stroke-dashoffset: 0; stroke-linejoin: miter; stroke-miterlimit: 4; fill: rgb(219,216,221); fill-rule: nonzero; opacity: 1;" vector-effect="non-scaling-stroke"  transform=" translate(-157.32, -385.68)" d="M 131.262 379.642 L 183.38400000000001 379.642 L 183.38400000000001 391.716 L 131.262 391.716 z" stroke-linecap="round" />
</g>
		<g transform="matrix(1.01 0 0 1.01 42.98 134.18)"  >
<path style="stroke: none; stroke-width: 1; stroke-dasharray: none; stroke-linecap: butt; stroke-dashoffset: 0; stroke-linejoin: miter; stroke-miterlimit: 4; fill: rgb(219,216,221); fill-rule: nonzero; opacity: 1;" vector-effect="non-scaling-stroke"  transform=" translate(-295.53, -385.68)" d="M 216.229 379.642 L 374.837 379.642 L 374.837 391.716 L 216.22899999999998 391.716 z" stroke-linecap="round" />
</g>
		<g transform="matrix(1.01 0 0 1.01 -96.84 182.9)"  >
<path style="stroke: none; stroke-width: 1; stroke-dasharray: none; stroke-linecap: butt; stroke-dashoffset: 0; stroke-linejoin: miter; stroke-miterlimit: 4; fill: rgb(219,216,221); fill-rule: nonzero; opacity: 1;" vector-effect="non-scaling-stroke"  transform=" translate(-157.32, -433.84)" d="M 131.262 427.801 L 183.38400000000001 427.801 L 183.38400000000001 439.875 L 131.262 439.875 z" stroke-linecap="round" />
</g>
		<g transform="matrix(1.01 0 0 1.01 42.98 182.9)"  >
<path style="stroke: none; stroke-width: 1; stroke-dasharray: none; stroke-linecap: butt; stroke-dashoffset: 0; stroke-linejoin: miter; stroke-miterlimit: 4; fill: rgb(219,216,221); fill-rule: nonzero; opacity: 1;" vector-effect="non-scaling-stroke"  transform=" translate(-295.53, -433.84)" d="M 216.229 427.801 L 374.837 427.801 L 374.837 439.875 L 216.22899999999998 439.875 z" stroke-linecap="round" />
</g>
		<g transform="matrix(1.01 0 0 1.01 0 -66.77)"  >
<path style="stroke: none; stroke-width: 1; stroke-dasharray: none; stroke-linecap: butt; stroke-dashoffset: 0; stroke-linejoin: miter; stroke-miterlimit: 4; fill: rgb(239,82,97); fill-rule: nonzero; opacity: 1;" vector-effect="non-scaling-stroke"  transform=" translate(-253.05, -187.05)" d="M 289.51 210.742 C 289.51 172.416 253.048 126.86899999999999 253.048 126.86899999999999 C 253.048 126.86899999999999 216.586 169.774 216.586 210.742 C 216.572 230.879 232.88500000000002 247.21499999999997 253.02200000000002 247.22899999999998 C 273.159 247.243 289.495 230.92999999999998 289.509 210.79299999999998 C 289.51 210.77499999999998 289.51 210.75799999999998 289.51 210.742" stroke-linecap="round" />
</g>
		<g transform="matrix(1.01 0 0 1.01 0 -44.46)"  >
<path style="stroke: none; stroke-width: 1; stroke-dasharray: none; stroke-linecap: butt; stroke-dashoffset: 0; stroke-linejoin: miter; stroke-miterlimit: 4; fill: rgb(238,239,238); fill-rule: nonzero; opacity: 1;" vector-effect="non-scaling-stroke"  transform=" translate(-253.05, -209.1)" d="M 248.142 189.977 L 257.957 189.977 L 257.957 228.22 L 248.142 228.22 z" stroke-linecap="round" />
</g>
		<g transform="matrix(1.01 0 0 1.01 0 -44.46)"  >
<path style="stroke: none; stroke-width: 1; stroke-dasharray: none; stroke-linecap: butt; stroke-dashoffset: 0; stroke-linejoin: miter; stroke-miterlimit: 4; fill: rgb(238,239,238); fill-rule: nonzero; opacity: 1;" vector-effect="non-scaling-stroke"  transform=" translate(-253.05, -209.1)" d="M 233.928 204.197 L 272.171 204.197 L 272.171 214.012 L 233.928 214.012 z" stroke-linecap="round" />
</g>
</g>
</g>
</svg>